<svg width="250" height="240" viewBox="0 0 250 240" fill="none" xmlns="http://www.w3.org/2000/svg">
<path d="M17.8891 240V233.057H21.3759C24.585 233.057 27.177 230.465 27.177 227.256C27.177 224.047 24.585 221.455 21.3759 221.455H16.6857V240H17.8891ZM21.3759 222.628C23.9371 222.628 25.9736 224.695 25.9736 227.256C25.9736 229.817 23.9371 231.885 21.3759 231.885H17.8891V222.628H21.3759Z" fill="#101820"/>
<path d="M54.5801 240H55.8761L57.9744 234.785H66.3366L68.4348 240H69.7308L62.7263 222.628L62.2326 221.455H62.0783L61.6155 222.628L54.5801 240ZM62.1709 224.448L65.8428 233.613H58.4681L62.1709 224.448Z" fill="#101820"/>
<path d="M109.362 240H110.565V223.769L123.186 239.784L123.34 240H124.235V239.414V221.455H123.032V237.686L110.442 221.671L110.257 221.455H109.362V222.041V240Z" fill="#101820"/>
<path d="M163.5 221.455V222.041V240H168.684C173.806 240 177.941 235.834 177.941 230.712C177.941 225.59 173.806 221.455 168.684 221.455H164.086H163.5ZM168.684 222.628C173.127 222.628 176.738 226.269 176.738 230.712C176.738 235.217 173.158 238.797 168.684 238.797H164.703V222.628H168.684Z" fill="#101820"/>
<path d="M210.785 240H212.081L214.179 234.785H222.541L224.639 240H225.935L218.931 222.628L218.437 221.455H218.283L217.82 222.628L210.785 240ZM218.376 224.448L222.047 233.613H214.673L218.376 224.448Z" fill="#101820"/>
<path d="M18.5475 212.797C28.5179 212.797 37.3353 206.422 37.3353 197.808C37.3353 193.128 35.2327 188.244 31.0275 183.904C28.9249 181.801 26.8901 180.105 21.871 176.443L21.1927 175.968C11.9006 169.457 10.8832 166.947 10.8832 163.692C10.8832 159.012 15.0206 154.671 19.9041 154.671C23.7701 154.671 27.4327 157.519 30.2814 163.556L40.0483 159.147C35.3005 148.702 27.704 143.886 19.9719 143.886C9.39107 143.886 0.098938 152.975 0.098938 163.759C0.098938 168.575 1.72676 172.984 5.7963 177.325C7.76325 179.427 11.0867 182.208 15.631 185.26C23.9736 191.297 26.2118 194.01 26.4832 197.537C26.4832 200.182 22.4136 202.013 18.5475 202.013C15.631 202.013 12.9858 200.928 12.1041 198.554L1.93024 202.149C4.43979 209.203 11.1545 212.797 18.5475 212.797Z" fill="#101820"/>
<path d="M74.5038 211.305L74.5716 200.521L58.5647 200.453V149.855H47.7804L47.8483 211.17L74.5038 211.305Z" fill="#101820"/>
<path d="M95.0549 149.991H84.2706V210.627H95.0549V149.991Z" fill="#101820"/>
<path d="M113.911 212.255L113.978 191.568C133.173 189.737 143.957 181.462 143.957 170.338C143.957 159.079 131.952 148.634 116.217 148.634L114.046 148.702L103.262 148.634L103.126 212.255H113.911ZM113.978 180.716L114.046 159.554C114.792 159.486 115.538 159.486 116.284 159.486C125.305 159.486 133.105 164.777 133.105 170.406C133.105 175.29 125.916 179.427 113.978 180.716Z" fill="#101820"/>
<path d="M162.745 212.255L162.813 191.568C182.008 189.737 192.792 181.462 192.792 170.338C192.792 159.079 180.787 148.634 165.051 148.634L162.881 148.702L152.096 148.634L151.961 212.255H162.745ZM162.813 180.716L162.881 159.554C163.627 159.486 164.373 159.486 165.119 159.486C174.14 159.486 181.94 164.777 181.94 170.406C181.94 175.29 174.75 179.427 162.813 180.716Z" fill="#101820"/>
<path d="M215.174 211.509L225.959 211.441L225.823 181.191L249.901 159.215L242.644 151.279L221.753 170.338L208.799 146.599L199.303 151.754L215.039 180.512L215.174 211.509Z" fill="#101820"/>
<path fill-rule="evenodd" clip-rule="evenodd" d="M84.1763 7.05046C68.5165 14.6028 54.819 24.2226 45.4193 39.3176C41.1694 35.0964 39.6857 30.3391 40.461 24.9883C42.6243 10.1518 57.7289 -1.45905 72.5654 0.149051C77.3323 0.675511 81.1707 2.77179 84.1763 7.05046ZM204.563 39.2314C195.058 24.0694 181.475 14.5166 165.931 7.10788C168.678 2.92493 172.401 0.838235 176.967 0.225635C192.263 -1.8132 208.009 10.4389 209.627 25.7541C210.144 30.7603 208.89 35.3357 204.563 39.2314ZM65.0419 81.1089C65.0036 67.8229 76.423 55.389 89.6227 54.3456C99.8552 53.532 108.097 61.6203 108.058 72.4175C108.001 85.2152 97.1942 97.2855 84.5209 98.683C73.4365 99.9178 65.0802 92.3751 65.0419 81.1089ZM141.991 72.2069C142.058 60.2898 151.563 52.5461 163.241 54.8816C175.349 57.3033 184.969 68.7514 185.075 80.8887C185.189 93.2078 175.024 101.133 162.686 98.3288C151.4 95.7636 141.924 83.8082 141.991 72.2069ZM95.7967 72.9918C97.8451 72.877 99.501 71.0104 99.4436 68.8759C99.3861 66.7509 97.6058 64.9035 95.6148 64.8939C93.4994 64.8844 91.5563 67.0859 91.719 69.297C91.8721 71.3742 93.777 73.1067 95.7967 72.9918ZM158.273 68.8184C158.177 66.6169 156.339 64.8078 154.31 64.9035C152.252 65.0088 150.644 66.8945 150.711 69.1343C150.778 71.4124 152.492 73.0971 154.636 73.0014C156.741 72.9152 158.369 71.0391 158.273 68.8184ZM127.126 103.249C125.987 108.399 126.829 110.658 130.39 112.553C134.688 114.841 138.65 113.634 143.934 108.274C145.252 111.023 143.458 112.327 141.871 113.48C141.707 113.6 141.544 113.718 141.388 113.835C136.554 117.473 131.452 116.774 124.972 111.825C118.769 116.793 113.572 117.425 108.556 113.816C105.933 111.931 105.378 110.648 106.24 108.485C111.657 113.663 115.362 114.793 119.621 112.572C123.153 110.725 123.957 108.667 123.048 103.469C121.115 102.77 118.923 102.292 117.104 101.191C115.898 100.454 114.529 98.817 114.529 97.5918C114.539 96.3762 115.907 94.6436 117.133 94.031C122.579 91.303 128.246 91.2935 133.663 94.0789C137.607 96.1082 137.463 99.0755 133.52 101.239C132.505 101.794 131.366 102.158 130.246 102.512C129.289 102.818 128.284 102.99 127.126 103.249Z" fill="#101820"/>
</svg>
